<?xml version="1.0" encoding="UTF-8" standalone="no"?>
<svg xmlns:ffdec="https://www.free-decompiler.com/flash" xmlns:xlink="http://www.w3.org/1999/xlink" ffdec:objectType="shape" height="15.2px" width="208.35px" xmlns="http://www.w3.org/2000/svg">
  <g transform="matrix(1.0, 0.0, 0.0, 1.0, -15.4, -7.5)">
    <path d="M223.5 16.6 L223.5 13.8 Q224.1 11.6 222.1 9.8 220.05 8.0 216.9 7.8 L22.1 7.8 Q19.35 7.8 17.4 9.55 15.5 11.3 15.5 13.8 L15.5 16.6 Q15.5 19.1 17.4 20.85 19.35 22.6 22.1 22.6 L216.9 22.6 Q219.65 22.6 221.55 20.85 223.5 19.1 223.5 16.6 Z" ffdec:has-small-stroke="true" ffdec:original-stroke-width="0.25" fill="none" stroke="#333333" stroke-linecap="round" stroke-linejoin="round" stroke-width="1.0"/>
    <path d="M215.65 7.5 Q218.4 7.5 220.25 8.25 222.15 9.0 222.15 10.05 L222.15 11.25 Q222.15 12.35 220.25 13.1 218.4 13.8 215.65 13.8 L23.95 13.8 Q21.25 13.8 19.3 13.1 17.4 12.35 17.4 11.25 L17.4 10.05 Q17.4 9.0 19.3 8.25 21.25 7.5 23.95 7.5 L215.65 7.5" fill="url(#gradient0)" fill-rule="evenodd" stroke="none"/>
  </g>
  <defs>
    <linearGradient gradientTransform="matrix(0.0, 0.0038, -0.0089, 0.0, 119.85, 10.65)" gradientUnits="userSpaceOnUse" id="gradient0" spreadMethod="pad" x1="-819.2" x2="819.2">
      <stop offset="0.0" stop-color="#ffffff" stop-opacity="0.7607843"/>
      <stop offset="1.0" stop-color="#ffffff" stop-opacity="0.14117648"/>
    </linearGradient>
  </defs>
</svg>
