<?xml version="1.0" encoding="UTF-8" standalone="no"?>
<svg xmlns:ffdec="https://www.free-decompiler.com/flash" xmlns:xlink="http://www.w3.org/1999/xlink" ffdec:objectType="shape" height="41.75px" width="112.75px" xmlns="http://www.w3.org/2000/svg">
  <g transform="matrix(1.0, 0.0, 0.0, 1.0, 11.85, 25.35)">
    <path d="M94.6 -24.35 Q99.9 -24.35 99.9 -20.15 L99.9 11.3 Q99.9 15.4 94.6 15.4 L-5.6 15.4 Q-10.85 15.4 -10.85 11.3 L-10.85 -20.15 Q-10.85 -24.35 -5.6 -24.35 L94.6 -24.35" fill="#666666" fill-rule="evenodd" stroke="none"/>
    <path d="M94.6 -24.35 L-5.6 -24.35 Q-10.85 -24.35 -10.85 -20.15 L-10.85 11.3 Q-10.85 15.4 -5.6 15.4 L94.6 15.4 Q99.9 15.4 99.9 11.3 L99.9 -20.15 Q99.9 -24.35 94.6 -24.35 Z" fill="none" stroke="#000000" stroke-linecap="round" stroke-linejoin="round" stroke-width="2.0"/>
  </g>
</svg>
