<?xml version="1.0" encoding="UTF-8" standalone="no"?>
<svg xmlns:ffdec="https://www.free-decompiler.com/flash" xmlns:xlink="http://www.w3.org/1999/xlink" ffdec:objectType="shape" height="84.05px" width="616.5px" xmlns="http://www.w3.org/2000/svg">
  <g transform="matrix(1.0, 0.0, 0.0, 1.0, -37.15, -243.4)">
    <path d="M653.65 272.7 L653.65 277.0 650.5 277.0 650.3 279.1 640.8 281.05 638.55 276.1 636.75 276.1 634.6 277.85 628.75 278.35 628.75 280.9 634.4 280.9 634.4 283.8 Q616.25 289.35 601.9 306.0 L574.05 327.45 110.0 327.45 88.05 306.0 Q74.0 290.15 56.4 284.8 L56.4 281.9 62.05 281.9 62.05 279.35 56.2 278.85 54.05 277.1 52.25 277.1 50.0 282.05 40.5 280.1 40.3 278.0 37.15 278.0 37.15 273.7 Q68.75 265.55 100.55 280.65 L104.9 264.3 Q88.4 253.1 67.7 251.75 L57.05 243.4 608.8 245.9 623.0 252.25 Q596.75 255.3 585.9 263.3 L590.25 279.65 Q619.3 266.1 653.65 272.7" fill="#000000" fill-rule="evenodd" stroke="none"/>
  </g>
</svg>
