<?xml version="1.0" encoding="UTF-8" standalone="no"?>
<svg xmlns:ffdec="https://www.free-decompiler.com/flash" xmlns:xlink="http://www.w3.org/1999/xlink" ffdec:objectType="shape" height="51.85px" width="339.9px" xmlns="http://www.w3.org/2000/svg">
  <g transform="matrix(1.0, 0.0, 0.0, 1.0, 0.0, 0.0)">
    <path d="M0.0 10.95 L0.0 7.7 11.9 0.0 16.95 0.0 0.0 10.95" fill="#8cbffc" fill-opacity="0.18039216" fill-rule="evenodd" stroke="none"/>
    <path d="M24.5 0.0 L29.55 0.0 0.0 19.15 0.0 15.85 24.5 0.0" fill="#8cbffc" fill-opacity="0.18039216" fill-rule="evenodd" stroke="none"/>
    <path d="M37.15 0.0 L42.2 0.0 0.0 27.25 0.0 24.05 37.15 0.0" fill="#8cbffc" fill-opacity="0.18039216" fill-rule="evenodd" stroke="none"/>
    <path d="M49.75 0.0 L54.85 0.0 0.0 35.45 0.0 32.15 49.75 0.0" fill="#8cbffc" fill-opacity="0.18039216" fill-rule="evenodd" stroke="none"/>
    <path d="M62.45 0.0 L67.45 0.0 0.0 43.55 0.0 40.35 62.45 0.0" fill="#8cbffc" fill-opacity="0.18039216" fill-rule="evenodd" stroke="none"/>
    <path d="M75.05 0.0 L80.15 0.0 1.6 50.65 Q0.25 49.8 0.0 48.4 L75.05 0.0" fill="#8cbffc" fill-opacity="0.18039216" fill-rule="evenodd" stroke="none"/>
    <path d="M87.75 0.0 L92.75 0.0 Q52.55 25.95 12.3 51.85 L7.3 51.85 87.75 0.0" fill="#8cbffc" fill-opacity="0.18039216" fill-rule="evenodd" stroke="none"/>
    <path d="M100.35 0.0 L105.45 0.0 25.0 51.85 19.9 51.85 Q60.15 25.95 100.35 0.0" fill="#8cbffc" fill-opacity="0.18039216" fill-rule="evenodd" stroke="none"/>
    <path d="M112.95 0.0 L118.05 0.0 37.6 51.85 32.5 51.85 112.95 0.0" fill="#8cbffc" fill-opacity="0.18039216" fill-rule="evenodd" stroke="none"/>
    <path d="M125.65 0.0 L130.65 0.0 50.2 51.85 45.2 51.85 125.65 0.0" fill="#8cbffc" fill-opacity="0.18039216" fill-rule="evenodd" stroke="none"/>
    <path d="M138.25 0.0 L143.35 0.0 62.9 51.85 57.8 51.85 138.25 0.0" fill="#8cbffc" fill-opacity="0.18039216" fill-rule="evenodd" stroke="none"/>
    <path d="M150.95 0.0 L155.95 0.0 75.5 51.85 70.5 51.85 150.95 0.0" fill="#8cbffc" fill-opacity="0.18039216" fill-rule="evenodd" stroke="none"/>
    <path d="M88.2 51.85 L83.1 51.85 163.55 0.0 168.65 0.0 88.2 51.85" fill="#8cbffc" fill-opacity="0.18039216" fill-rule="evenodd" stroke="none"/>
    <path d="M176.15 0.0 L181.25 0.0 100.8 51.85 95.7 51.85 176.15 0.0" fill="#8cbffc" fill-opacity="0.18039216" fill-rule="evenodd" stroke="none"/>
    <path d="M188.85 0.0 L193.85 0.0 113.4 51.85 108.4 51.85 188.85 0.0" fill="#8cbffc" fill-opacity="0.18039216" fill-rule="evenodd" stroke="none"/>
    <path d="M201.45 0.0 L206.55 0.0 126.1 51.85 121.0 51.85 201.45 0.0" fill="#8cbffc" fill-opacity="0.18039216" fill-rule="evenodd" stroke="none"/>
    <path d="M214.15 0.0 L219.15 0.0 138.7 51.85 133.7 51.85 214.15 0.0" fill="#8cbffc" fill-opacity="0.18039216" fill-rule="evenodd" stroke="none"/>
    <path d="M226.75 0.0 L231.85 0.0 151.4 51.85 146.3 51.85 226.75 0.0" fill="#8cbffc" fill-opacity="0.18039216" fill-rule="evenodd" stroke="none"/>
    <path d="M239.45 0.0 L244.45 0.0 164.0 51.85 159.0 51.85 239.45 0.0" fill="#8cbffc" fill-opacity="0.18039216" fill-rule="evenodd" stroke="none"/>
    <path d="M252.05 0.0 L257.15 0.0 176.7 51.85 171.6 51.85 252.05 0.0" fill="#8cbffc" fill-opacity="0.18039216" fill-rule="evenodd" stroke="none"/>
    <path d="M264.65 0.0 L269.75 0.0 189.3 51.85 184.2 51.85 264.65 0.0" fill="#8cbffc" fill-opacity="0.18039216" fill-rule="evenodd" stroke="none"/>
    <path d="M277.35 0.0 L282.35 0.0 201.9 51.85 196.9 51.85 277.35 0.0" fill="#8cbffc" fill-opacity="0.18039216" fill-rule="evenodd" stroke="none"/>
    <path d="M289.95 0.0 L295.05 0.0 214.6 51.85 209.5 51.85 289.95 0.0" fill="#8cbffc" fill-opacity="0.18039216" fill-rule="evenodd" stroke="none"/>
    <path d="M302.65 0.0 L307.65 0.0 227.2 51.85 222.2 51.85 302.65 0.0" fill="#8cbffc" fill-opacity="0.18039216" fill-rule="evenodd" stroke="none"/>
    <path d="M315.25 0.0 L320.3 0.0 239.9 51.85 234.8 51.85 315.25 0.0" fill="#8cbffc" fill-opacity="0.18039216" fill-rule="evenodd" stroke="none"/>
    <path d="M327.9 0.0 L332.9 0.0 252.5 51.85 247.5 51.85 327.9 0.0" fill="#8cbffc" fill-opacity="0.18039216" fill-rule="evenodd" stroke="none"/>
    <path d="M339.9 1.25 L339.9 3.6 339.65 3.85 265.2 51.85 260.1 51.85 338.3 1.5 339.9 1.25" fill="#8cbffc" fill-opacity="0.18039216" fill-rule="evenodd" stroke="none"/>
    <path d="M339.65 8.75 L339.65 12.05 277.8 51.85 272.7 51.85 339.65 8.75" fill="#8cbffc" fill-opacity="0.18039216" fill-rule="evenodd" stroke="none"/>
    <path d="M339.65 16.95 L339.65 20.15 290.4 51.85 285.4 51.85 339.65 16.95" fill="#8cbffc" fill-opacity="0.18039216" fill-rule="evenodd" stroke="none"/>
    <path d="M339.65 25.05 L339.65 28.35 303.05 51.85 298.0 51.85 339.65 25.05" fill="#8cbffc" fill-opacity="0.18039216" fill-rule="evenodd" stroke="none"/>
    <path d="M315.65 51.85 L310.65 51.85 339.65 33.25 339.65 36.5 315.65 51.85" fill="#8cbffc" fill-opacity="0.18039216" fill-rule="evenodd" stroke="none"/>
    <path d="M328.35 51.85 L323.25 51.85 339.65 41.4 339.65 44.65 328.35 51.85" fill="#8cbffc" fill-opacity="0.18039216" fill-rule="evenodd" stroke="none"/>
  </g>
</svg>
