<?xml version="1.0" encoding="UTF-8" standalone="no"?>
<svg xmlns:ffdec="https://www.free-decompiler.com/flash" xmlns:xlink="http://www.w3.org/1999/xlink" ffdec:objectType="morphshape" height="92.8px" width="103.65px" xmlns="http://www.w3.org/2000/svg">
  <g transform="matrix(1.0, 0.0, 0.0, 1.0, -13.35, -16.5)">
    <path d="M87.2 82.95 L87.2 82.95 87.7 84.1 88.0 84.05 Q88.4 84.05 89.05 84.8 L89.75 85.5 92.3 85.0 94.1 84.05 Q94.7 83.55 95.3 83.05 L97.25 80.9 Q98.15 79.6 99.0 78.3 L99.55 76.1 Q100.2 74.75 100.85 73.45 L101.0 72.5 Q101.0 70.4 100.65 69.05 L99.95 67.1 Q99.6 65.9 97.95 65.55 96.65 65.4 94.75 66.3 L93.2 67.15 Q92.1 67.9 91.35 68.75 90.05 70.15 89.65 71.85 L89.55 74.85 Q86.85 78.8 87.2 82.95 M18.65 99.8 L21.0 100.35 Q21.45 100.05 22.0 100.05 L24.65 100.55 25.2 100.8 26.65 101.35 28.0 101.05 32.55 101.3 Q37.75 100.8 42.65 99.25 48.7 97.3 54.25 93.8 60.45 89.95 64.0 85.8 L66.15 83.05 Q67.6 80.55 68.45 77.25 69.5 71.15 70.5 68.25 L71.25 65.95 Q73.15 59.75 73.5 54.3 L73.55 50.55 73.55 47.8 73.6 46.65 Q73.25 45.25 73.2 42.95 L73.1 39.3 73.0 34.75 71.95 30.8 70.95 26.85 Q70.3 24.1 69.65 21.4 L69.55 20.85 Q69.55 15.75 71.7 17.4 72.1 17.0 72.7 16.75 73.75 16.6 74.75 16.5 75.85 18.8 76.95 21.1 77.8 22.7 78.65 24.3 79.95 26.7 81.2 29.1 82.7 31.85 84.15 34.6 L85.5 37.05 Q86.3 38.5 87.05 39.9 L92.6 50.7 92.7 50.8 Q95.35 55.65 97.4 57.75 98.05 59.05 99.85 60.95 L99.9 61.75 100.2 61.85 100.4 61.85 100.8 62.0 Q101.85 63.0 102.9 63.95 L103.75 64.75 103.85 64.85 104.25 65.15 Q108.0 68.45 111.75 71.75 L111.95 72.1 Q112.7 73.55 114.4 79.75 L114.6 80.55 Q115.4 83.75 116.5 85.4 L117.0 86.0 Q116.6 86.8 115.5 86.8 L114.55 86.55 114.6 89.45 114.25 90.85 Q113.5 92.2 112.75 93.55 L111.95 94.65 Q110.45 96.55 109.15 96.7 L107.85 96.45 Q107.25 96.05 106.75 95.1 L105.9 96.2 Q103.0 99.5 97.25 100.2 L96.0 100.35 Q85.85 101.4 81.85 98.7 L81.4 99.85 Q80.65 101.2 79.75 101.3 L78.55 101.25 78.4 101.35 78.15 101.6 77.65 102.05 77.15 102.55 76.1 103.25 75.3 103.35 74.9 103.35 74.1 103.35 72.0 103.6 70.1 104.6 Q67.6 105.55 65.1 106.45 L64.8 106.55 Q57.6 108.85 51.6 109.2 L49.25 109.3 47.95 109.3 Q45.75 109.1 43.6 108.9 L41.0 108.5 40.9 108.5 40.0 108.8 37.6 108.2 37.15 108.0 32.8 106.5 Q25.55 105.8 22.55 104.55 L22.2 104.4 Q20.05 103.4 20.05 101.85 L20.2 101.3 18.95 100.1 18.65 99.8" fill="#000000" fill-opacity="0.14117648" fill-rule="evenodd" stroke="none">
      <animate attributeName="fill" dur="2.0s" repeatCount="indefinite" values="#000000;#000001"/>
      <animate attributeName="fill-opacity" dur="2.0s" repeatCount="indefinite" values="0.14117648;0.14117648"/>
      <animate attributeName="d" dur="2.0s" repeatCount="indefinite" values="M87.2 82.95 L87.2 82.95 87.7 84.1 88.0 84.05 Q88.4 84.05 89.05 84.8 L89.75 85.5 92.3 85.0 94.1 84.05 Q94.7 83.55 95.3 83.05 L97.25 80.9 Q98.15 79.6 99.0 78.3 L99.55 76.1 Q100.2 74.75 100.85 73.45 L101.0 72.5 Q101.0 70.4 100.65 69.05 L99.95 67.1 Q99.6 65.9 97.95 65.55 96.65 65.4 94.75 66.3 L93.2 67.15 Q92.1 67.9 91.35 68.75 90.05 70.15 89.65 71.85 L89.55 74.85 Q86.85 78.8 87.2 82.95 M18.65 99.8 L21.0 100.35 Q21.45 100.05 22.0 100.05 L24.65 100.55 25.2 100.8 26.65 101.35 28.0 101.05 32.55 101.3 Q37.75 100.8 42.65 99.25 48.7 97.3 54.25 93.8 60.45 89.95 64.0 85.8 L66.15 83.05 Q67.6 80.55 68.45 77.25 69.5 71.15 70.5 68.25 L71.25 65.95 Q73.15 59.75 73.5 54.3 L73.55 50.55 73.55 47.8 73.6 46.65 Q73.25 45.25 73.2 42.95 L73.1 39.3 73.0 34.75 71.95 30.8 70.95 26.85 Q70.3 24.1 69.65 21.4 L69.55 20.85 Q69.55 15.75 71.7 17.4 72.1 17.0 72.7 16.75 73.75 16.6 74.75 16.5 75.85 18.8 76.95 21.1 77.8 22.7 78.65 24.3 79.95 26.7 81.2 29.1 82.7 31.85 84.15 34.6 L85.5 37.05 Q86.3 38.5 87.05 39.9 L92.6 50.7 92.7 50.8 Q95.35 55.65 97.4 57.75 98.05 59.05 99.85 60.95 L99.9 61.75 100.2 61.85 100.4 61.85 100.8 62.0 Q101.85 63.0 102.9 63.95 L103.75 64.75 103.85 64.85 104.25 65.15 Q108.0 68.45 111.75 71.75 L111.95 72.1 Q112.7 73.55 114.4 79.75 L114.6 80.55 Q115.4 83.75 116.5 85.4 L117.0 86.0 Q116.6 86.8 115.5 86.8 L114.55 86.55 114.6 89.45 114.25 90.85 Q113.5 92.2 112.75 93.55 L111.95 94.65 Q110.45 96.55 109.15 96.7 L107.85 96.45 Q107.25 96.05 106.75 95.1 L105.9 96.2 Q103.0 99.5 97.25 100.2 L96.0 100.35 Q85.85 101.4 81.85 98.7 L81.4 99.85 Q80.65 101.2 79.75 101.3 L78.55 101.25 78.4 101.35 78.15 101.6 77.65 102.05 77.15 102.55 76.1 103.25 75.3 103.35 74.9 103.35 74.1 103.35 72.0 103.6 70.1 104.6 Q67.6 105.55 65.1 106.45 L64.8 106.55 Q57.6 108.85 51.6 109.2 L49.25 109.3 47.95 109.3 Q45.75 109.1 43.6 108.9 L41.0 108.5 40.9 108.5 40.0 108.8 37.6 108.2 37.15 108.0 32.8 106.5 Q25.55 105.8 22.55 104.55 L22.2 104.4 Q20.05 103.4 20.05 101.85 L20.2 101.3 18.95 100.1 18.65 99.8;M83.55 88.25 L83.55 88.35 83.65 89.7 83.65 90.0 Q83.7 90.65 83.75 91.25 L83.85 92.05 84.3 94.9 84.7 96.95 Q85.45 97.5 86.5 97.5 L90.0 96.9 Q91.55 96.3 92.85 95.15 L94.5 93.35 Q95.75 91.75 96.25 90.3 L96.45 89.4 Q96.8 87.7 96.8 85.75 L96.7 83.6 Q96.85 82.1 97.0 80.65 97.0 78.7 96.25 77.4 L95.3 76.25 Q94.2 75.25 92.85 75.15 91.2 76.4 89.55 77.6 L86.95 80.05 Q83.55 83.85 83.55 88.25 M13.35 96.2 L15.7 97.05 Q16.25 97.25 16.75 97.4 L19.25 98.3 19.75 98.4 21.35 98.85 22.55 99.15 27.25 100.0 Q32.5 100.4 37.75 100.75 45.0 100.75 51.0 98.95 57.3 97.05 62.25 93.1 L64.85 90.8 Q66.75 88.95 68.7 86.05 70.9 82.85 73.2 78.4 L74.3 76.25 Q76.8 70.8 79.3 65.35 L79.7 61.5 79.8 58.75 79.75 57.7 Q79.5 55.75 79.3 53.85 L78.55 50.25 77.7 45.95 77.3 41.75 77.05 37.6 Q76.75 35.0 76.05 32.3 L75.85 31.6 Q75.1 28.4 74.85 26.3 74.8 25.65 74.8 25.0 74.8 23.7 75.1 22.8 75.95 20.05 79.4 20.7 81.45 21.1 82.95 22.35 84.75 23.8 85.8 26.5 86.8 28.45 87.35 32.75 L87.8 35.75 Q88.2 38.2 88.55 39.25 L93.1 50.5 93.2 50.6 Q94.8 54.75 96.35 58.9 97.2 61.5 97.45 63.0 L97.55 63.7 97.55 64.1 97.75 64.25 98.0 64.5 Q98.8 65.4 98.8 67.25 L98.8 68.3 98.8 68.4 99.25 68.55 Q103.9 70.5 106.4 75.2 L106.55 75.5 Q108.9 81.05 110.3 83.65 L110.45 84.5 Q110.5 87.1 110.55 89.65 L110.55 90.8 Q110.5 91.6 110.45 92.4 L110.45 93.3 110.15 96.3 110.05 97.55 Q109.95 98.55 108.6 100.3 L107.75 101.35 Q106.3 103.0 105.15 103.65 L103.75 104.05 Q102.9 104.05 102.3 103.35 L101.6 102.15 Q98.5 105.7 92.75 106.0 L91.5 106.05 Q81.5 106.05 77.3 103.4 L76.35 102.7 Q75.75 104.05 75.05 104.6 L74.1 105.05 74.0 105.05 73.7 105.05 72.75 104.85 72.3 105.15 71.4 105.8 70.6 106.25 70.1 106.5 69.3 106.5 67.25 106.3 65.0 106.4 Q61.15 106.65 59.3 107.6 L59.0 107.6 Q52.25 107.85 45.5 108.05 L43.2 108.15 42.0 108.2 Q41.0 106.8 38.0 106.45 L35.5 106.55 35.4 106.55 34.75 106.15 32.3 104.85 31.8 104.65 27.95 103.25 Q23.15 101.65 18.4 100.1 L18.0 100.0 Q16.55 99.55 15.2 98.35 L14.7 97.85 13.6 96.55 13.35 96.2"/>
    </path>
    <path d="M18.65 99.8 L18.95 100.1 20.2 101.3 20.05 101.85 Q20.05 103.4 22.2 104.4 L22.55 104.55 Q25.55 105.8 32.8 106.5 L37.15 108.0 37.6 108.2 40.0 108.8 40.9 108.5 41.0 108.5 43.6 108.9 Q45.75 109.1 47.95 109.3 L49.25 109.3 51.6 109.2 Q57.6 108.85 64.8 106.55 L65.1 106.45 Q67.6 105.55 70.1 104.6 L72.0 103.6 74.1 103.35 74.9 103.35 75.3 103.35 76.1 103.25 77.15 102.55 77.65 102.05 78.15 101.6 78.4 101.35 78.55 101.25 79.75 101.3 Q80.65 101.2 81.4 99.85 L81.85 98.7 Q85.85 101.4 96.0 100.35 L97.25 100.2 Q103.0 99.5 105.9 96.2 L106.75 95.1 Q107.25 96.05 107.85 96.45 L109.15 96.7 Q110.45 96.55 111.95 94.65 L112.75 93.55 Q113.5 92.2 114.25 90.85 L114.6 89.45 114.55 86.55 115.5 86.8 Q116.6 86.8 117.0 86.0 L116.5 85.4 Q115.4 83.75 114.6 80.55 L114.4 79.75 Q112.7 73.55 111.95 72.1 L111.75 71.75 Q108.0 68.45 104.25 65.15 L103.85 64.85 103.75 64.75 102.9 63.95 Q101.85 63.0 100.8 62.0 L100.4 61.85 100.2 61.85 99.9 61.75 99.85 60.95 Q98.05 59.05 97.4 57.75 95.35 55.65 92.7 50.8 L92.6 50.7 87.05 39.9 Q86.3 38.5 85.5 37.05 L84.15 34.6 Q82.7 31.85 81.2 29.1 79.95 26.7 78.65 24.3 77.8 22.7 76.95 21.1 75.85 18.8 74.75 16.5 73.75 16.6 72.7 16.75 72.1 17.0 71.7 17.4 69.55 15.75 69.55 20.85 L69.65 21.4 Q70.3 24.1 70.95 26.85 L71.95 30.8 73.0 34.75 73.1 39.3 73.2 42.95 Q73.25 45.25 73.6 46.65 L73.55 47.8 73.55 50.55 73.5 54.3 Q73.15 59.75 71.25 65.95 L70.5 68.25 Q69.5 71.15 68.45 77.25 67.6 80.55 66.15 83.05 L64.0 85.8 Q60.45 89.95 54.25 93.8 48.7 97.3 42.65 99.25 37.75 100.8 32.55 101.3 L28.0 101.05 26.65 101.35 25.2 100.8 24.65 100.55 22.0 100.05 Q21.45 100.05 21.0 100.35 L18.65 99.8 M87.2 82.95 Q86.85 78.8 89.55 74.85 L89.65 71.85 Q90.05 70.15 91.35 68.75 92.1 67.9 93.2 67.15 L94.75 66.3 Q96.65 65.4 97.95 65.55 99.6 65.9 99.95 67.1 L100.65 69.05 Q101.0 70.4 101.0 72.5 L100.85 73.45 Q100.2 74.75 99.55 76.1 L99.0 78.3 Q98.15 79.6 97.25 80.9 L95.3 83.05 Q94.7 83.55 94.1 84.05 L92.3 85.0 89.75 85.5 89.05 84.8 Q88.4 84.05 88.0 84.05 L87.7 84.1 87.2 82.95 87.2 82.95 Z" fill="none" stroke="#000000" stroke-linecap="round" stroke-linejoin="round" stroke-opacity="0.0" stroke-width="0.0">
      <animate attributeName="stroke" dur="2.0s" repeatCount="indefinite" values="#000000;#000001"/>
      <animate attributeName="stroke-width" dur="2.0s" repeatCount="indefinite" values="0.0;0.0"/>
      <animate attributeName="fill-opacity" dur="2.0s" repeatCount="indefinite" values="0.0;0.0"/>
      <animate attributeName="d" dur="2.0s" repeatCount="indefinite" values="M18.65 99.8 L18.95 100.1 20.2 101.3 20.05 101.85 Q20.05 103.4 22.2 104.4 L22.55 104.55 Q25.55 105.8 32.8 106.5 L37.15 108.0 37.6 108.2 40.0 108.8 40.9 108.5 41.0 108.5 43.6 108.9 Q45.75 109.1 47.95 109.3 L49.25 109.3 51.6 109.2 Q57.6 108.85 64.8 106.55 L65.1 106.45 Q67.6 105.55 70.1 104.6 L72.0 103.6 74.1 103.35 74.9 103.35 75.3 103.35 76.1 103.25 77.15 102.55 77.65 102.05 78.15 101.6 78.4 101.35 78.55 101.25 79.75 101.3 Q80.65 101.2 81.4 99.85 L81.85 98.7 Q85.85 101.4 96.0 100.35 L97.25 100.2 Q103.0 99.5 105.9 96.2 L106.75 95.1 Q107.25 96.05 107.85 96.45 L109.15 96.7 Q110.45 96.55 111.95 94.65 L112.75 93.55 Q113.5 92.2 114.25 90.85 L114.6 89.45 114.55 86.55 115.5 86.8 Q116.6 86.8 117.0 86.0 L116.5 85.4 Q115.4 83.75 114.6 80.55 L114.4 79.75 Q112.7 73.55 111.95 72.1 L111.75 71.75 Q108.0 68.45 104.25 65.15 L103.85 64.85 103.75 64.75 102.9 63.95 Q101.85 63.0 100.8 62.0 L100.4 61.85 100.2 61.85 99.9 61.75 99.85 60.95 Q98.05 59.05 97.4 57.75 95.35 55.65 92.7 50.8 L92.6 50.7 87.05 39.9 Q86.3 38.5 85.5 37.05 L84.15 34.6 Q82.7 31.85 81.2 29.1 79.95 26.7 78.65 24.3 77.8 22.7 76.95 21.1 75.85 18.8 74.75 16.5 73.75 16.6 72.7 16.75 72.1 17.0 71.7 17.4 69.55 15.75 69.55 20.85 L69.65 21.4 Q70.3 24.1 70.95 26.85 L71.95 30.8 73.0 34.75 73.1 39.3 73.2 42.95 Q73.25 45.25 73.6 46.65 L73.55 47.8 73.55 50.55 73.5 54.3 Q73.15 59.75 71.25 65.95 L70.5 68.25 Q69.5 71.15 68.45 77.25 67.6 80.55 66.15 83.05 L64.0 85.8 Q60.45 89.95 54.25 93.8 48.7 97.3 42.65 99.25 37.75 100.8 32.55 101.3 L28.0 101.05 26.65 101.35 25.2 100.8 24.65 100.55 22.0 100.05 Q21.45 100.05 21.0 100.35 L18.65 99.8 M87.2 82.95 Q86.85 78.8 89.55 74.85 L89.65 71.85 Q90.05 70.15 91.35 68.75 92.1 67.9 93.2 67.15 L94.75 66.3 Q96.65 65.4 97.95 65.55 99.6 65.9 99.95 67.1 L100.65 69.05 Q101.0 70.4 101.0 72.5 L100.85 73.45 Q100.2 74.75 99.55 76.1 L99.0 78.3 Q98.15 79.6 97.25 80.9 L95.3 83.05 Q94.7 83.55 94.1 84.05 L92.3 85.0 89.75 85.5 89.05 84.8 Q88.4 84.05 88.0 84.05 L87.7 84.1 87.2 82.95 87.2 82.95 Z;M13.35 96.2 L13.6 96.55 14.7 97.85 15.2 98.35 Q16.55 99.55 18.0 100.0 L18.4 100.1 Q23.15 101.65 27.95 103.25 L31.8 104.65 32.3 104.85 34.75 106.15 35.4 106.55 35.5 106.55 38.0 106.45 Q41.0 106.8 42.0 108.2 L43.2 108.15 45.5 108.05 Q52.25 107.85 59.0 107.6 L59.3 107.6 Q61.15 106.65 65.0 106.4 L67.25 106.3 69.3 106.5 70.1 106.5 70.6 106.25 71.4 105.8 72.3 105.15 72.75 104.85 73.7 105.05 74.0 105.05 74.1 105.05 75.05 104.6 Q75.75 104.05 76.35 102.7 L77.3 103.4 Q81.5 106.05 91.5 106.05 L92.75 106.0 Q98.5 105.7 101.6 102.15 L102.3 103.35 Q102.9 104.05 103.75 104.05 L105.15 103.65 Q106.3 103.0 107.75 101.35 L108.6 100.3 Q109.95 98.55 110.05 97.55 L110.15 96.3 110.45 93.3 110.45 92.4 Q110.5 91.6 110.55 90.8 L110.55 89.65 Q110.5 87.1 110.45 84.5 L110.3 83.65 Q108.9 81.05 106.55 75.5 L106.4 75.2 Q103.9 70.5 99.25 68.55 L98.8 68.4 98.8 68.3 98.8 67.25 Q98.8 65.4 98.0 64.5 L97.75 64.25 97.55 64.1 97.55 63.7 97.45 63.0 Q97.2 61.5 96.35 58.9 94.8 54.75 93.2 50.6 L93.1 50.5 88.55 39.25 Q88.2 38.2 87.8 35.75 L87.35 32.75 Q86.8 28.45 85.8 26.5 84.75 23.8 82.95 22.35 81.45 21.1 79.4 20.7 75.95 20.05 75.1 22.8 74.8 23.7 74.8 25.0 74.8 25.65 74.85 26.3 75.1 28.4 75.85 31.6 L76.05 32.3 Q76.75 35.0 77.05 37.6 L77.3 41.75 77.7 45.95 78.55 50.25 79.3 53.85 Q79.5 55.75 79.75 57.7 L79.8 58.75 79.7 61.5 79.3 65.35 Q76.8 70.8 74.3 76.25 L73.2 78.4 Q70.9 82.85 68.7 86.05 66.75 88.95 64.85 90.8 L62.25 93.1 Q57.3 97.05 51.0 98.95 45.0 100.75 37.75 100.75 32.5 100.4 27.25 100.0 L22.55 99.15 21.35 98.85 19.75 98.4 19.25 98.3 16.75 97.4 Q16.25 97.25 15.7 97.05 L13.35 96.2 M83.55 88.25 Q83.55 83.85 86.95 80.05 L89.55 77.6 Q91.2 76.4 92.85 75.15 94.2 75.25 95.3 76.25 L96.25 77.4 Q97.0 78.7 97.0 80.65 96.85 82.1 96.7 83.6 L96.8 85.75 Q96.8 87.7 96.45 89.4 L96.25 90.3 Q95.75 91.75 94.5 93.35 L92.85 95.15 Q91.55 96.3 90.0 96.9 L86.5 97.5 Q85.45 97.5 84.7 96.95 L84.3 94.9 83.85 92.05 83.75 91.25 Q83.7 90.65 83.65 90.0 L83.65 89.7 83.55 88.35 83.55 88.25 Z"/>
    </path>
  </g>
</svg>
